<svg enable-background="new 0 0 548.3 558.5" viewBox="0 0 548.3 558.5" xmlns="http://www.w3.org/2000/svg"><g fill="#fff"><path d="m309.4 277.9c1.1 1.5 2.3 3 3.4 4.6-3.3 1-6.7 1.9-10.1 2.6-.3-.4-.6-.9-1-1.3-3.1-4-6.2-8.1-8.6-12.8-7.8-15.2-6.1-32.3-4.5-48.9 1.6-16.4 3.2-32-4.3-44.7-6.3-10.7-17.8-17.3-29.9-24.2-12.8-7.3-26.1-14.9-33.6-28.1-4.4-7.8-6.2-16.4-7.8-24.7-1-5.1-2-9.9-3.5-14.5-4.9-14.6-15.8-26.8-27-37 2.4-2.2 4.9-4.2 7.5-6.2 11.8 10.9 23.2 24 28.6 40.2 1.7 5.2 2.8 10.5 3.8 15.7 1.6 7.9 3.1 15.3 6.7 21.8 6.2 10.9 17.8 17.5 30 24.5 12.7 7.3 25.8 14.7 33.4 27.7 9.1 15.5 7.3 33.3 5.6 50.6-1.6 15.9-3.1 30.9 3.4 43.5 2.2 3.7 4.9 7.3 7.9 11.2zm-53.2-94.8c-2.9-1.8-5.9-3.3-8.8-4.7-4.1-2-8-3.9-11.1-6.5-8-6.8-14.3-16.7-17.8-27.7-6.3-19.5-16.9-40.7-48.6-50.7-6.1-1.9-12.5-3-18.5-3.9-1.5 3-2.9 6-4.2 9.2 6.7 1 13.5 2 19.8 4 22.1 6.9 34.4 19.8 42.3 44.4 4.1 12.7 11.5 24.1 20.7 32.1 4.1 3.5 8.7 5.8 13.2 7.9 2.8 1.4 5.4 2.6 7.9 4.2 11.1 7 17.9 20.5 16.9 33.6-.8 10.8-6.2 20.6-11.9 31.1-1.1 2.1-2.3 4.2-3.4 6.2-3.3 6.2-6.9 14.1-8.6 22.7 3.1.7 6.3 1.3 9.5 1.8 1.2-5.9 3.7-12.5 7.7-19.9 1.1-2 2.2-4.1 3.3-6.1 5.9-10.9 12.1-22.1 13.1-35 1.1-16.8-7.5-33.9-21.5-42.7zm75.1 2.7-.6-.3c-4.7-2.5-10.6-5.6-13.4-12.7-.8-2.2-1.5-4.8-2.1-7.5-.6-2.5-1.2-5.1-2-7.4-3.2-9.3-10.3-15.5-17.1-21.6-4.9-4.3-9.5-8.4-12.6-13.4-4.1-6.7-5.7-15.6-7.3-24.2-2.5-13.6-5-27.7-17.5-35.4-3.2-2-6.5-3.1-9.8-4.3-3.4-1.2-6.7-2.4-9.2-4.3-2.4-1.9-4.3-4.7-6.2-7.6-4.7-7.2-9.1-14.7-13.2-22.3-3 1.3-5.9 2.6-8.8 4.1 4.3 8 8.9 15.8 13.8 23.5 2.4 3.7 4.8 7.2 8.4 10 3.7 2.9 7.9 4.3 11.9 5.8 2.9 1 5.6 2 7.9 3.4 8.9 5.5 10.8 16.3 13.1 28.9 1.7 9.5 3.5 19.3 8.6 27.5 3.8 6.2 9.2 11 14.4 15.6 6.2 5.5 12 10.7 14.4 17.5.7 1.9 1.2 4.2 1.8 6.5.7 3 1.4 6 2.5 8.8 4 10.4 12.7 15 17.8 17.7l.5.3c20.2 10.8 16.8 28.2 12.9 48.4-1.6 8.2-3.3 16.8-2.9 24.6.1 1.9.3 3.6.6 5.1 3.1-1.6 6.1-3.4 9.1-5.2 0-.1 0-.2 0-.3-.3-6.7 1.2-14.3 2.8-22.4 3.9-19.9 8.8-44.7-17.8-58.8zm-78.7-140.9c2.5 1.4 5.4 3 8.8 5 9.9 5.8 17.4 17 20.6 30.7.5 2 .8 4 1.2 6.2 1 5.9 2.1 11.9 5.4 17.5 2.9 4.8 7.8 8.3 13.3 9.4 1.3.3 2.6.4 3.8.4 3.4 0 6.6-1 9.3-2.9 13.3-9.2 5.5-23.1-.2-33.2-3.2-5.7-6.5-11.6-6.8-16.4-.1-1.6 0-3.2 0-4.9.1-2.9.2-5.9-.3-9-1.8-11.8-10.2-19.7-18.4-27.3-2.2-2.1-4.4-4.1-6.4-6.2-3.1-.2-6.2-.3-9.3-.3-1.2 0-2.4 0-3.6 0 .5.7 1 1.4 1.6 2.1 3.3 4.2 7.3 7.9 11.1 11.5 7.3 6.8 14.2 13.2 15.4 21.7.3 2.3.3 4.7.2 7.3-.1 1.8-.1 3.7 0 5.6.3 7 4.2 14 8 20.7 7 12.4 8.3 16.9 3.1 20.5-2 1.4-4.1 1.3-5.6 1-2.8-.6-5.5-2.5-7-5-2.4-4-3.3-8.9-4.2-14.1-.4-2.2-.8-4.5-1.3-6.7-3.8-16.3-13-29.7-25.2-36.9-3.5-2.1-6.4-3.7-9-5.1-11.5-6.3-12.5-6.9-15.2-18.7-3.2.7-6.3 1.6-9.3 2.6 3.8 15.1 7.1 17.4 20 24.5zm114.4 97.6-.2-.5c-8.2-17.8-17.8-27.1-28.5-27.7-10.9-.6-17.9 7.1-19.9 14.4-3.9 13.5 2.6 28 8 34.5 4.1 4.9 8.7 8.8 13.2 12.6 1 .8 2 1.7 3 2.5 8.7 7.5 14.2 17.2 17.8 31.5 3.3 13.4 6.5 26 7.2 39.5 0 .5 0 1.1.1 1.7 3.2-3 6.2-6.1 9-9.3-1.3-11.7-4-22.7-6.9-34.3-4.1-16.4-10.5-27.6-20.9-36.5-1-.9-2.1-1.7-3.1-2.6-4.3-3.6-8.4-7.1-11.9-11.3-4.2-5-8.8-16.4-6.1-25.7v-.1c.7-2.8 3.5-7.3 9.4-7.3h.6c4.7.2 12.1 4.3 20.2 22.1l.3.6c16.2 34.9 31.8 47.3 43.6 53.4 1.2-3 2.2-6.1 3.2-9.3-10.6-5.8-23.7-17.3-38.1-48.2zm43.4-1.1c-2.6-3.8-5.5-7.4-8.9-10.8-8-8.1-17.5-14.1-26.7-20-5-3.2-10.3-6.5-15-10.1-8.9-6.6-14.9-13.2-18.6-20.2-3.2-6.1-4.9-13-6.7-20.3v-.1c-2.7-10.9-5.9-24.5-12.1-36.9-4.4-1.7-9-3.1-13.6-4.4 8.1 11.9 12.2 26.9 16.3 43.6v.1c1.8 7.5 3.7 15.3 7.5 22.6 4.4 8.3 11.4 15.9 21.4 23.4 5.1 3.8 10.4 7.2 15.6 10.5 9.2 5.8 17.8 11.3 25 18.6 6.3 6.4 11.5 14.2 15.7 23.8.2-3.3.4-6.7.4-10.1.1-3.3-.1-6.5-.3-9.7zm-16.7-33.1c.4.3.9.7 1.6 1.2 3.7 2.7 7.5 5.3 11.2 7.7-1.3-5.1-2.9-10.1-4.8-15-.3-.2-.5-.4-.8-.6-.7-.5-1.3-1-1.7-1.3-10.7-7.5-30.1-30.7-34.5-38.9-3.3-6.3-5.6-12.6-7.4-19-3.9-3-8-5.9-12.3-8.4 2.6 10.4 5.4 21.1 11.2 31.9 5 9.4 25.4 33.9 37.5 42.4zm-151.4 121.2c-3.8-10.7-9.6-18.4-9.9-18.7-3.3-4.3-6.3-7-9-9.3-3.5-3.1-6.5-5.7-9.7-11.5-2-3.6-2.3-7.3-2.6-11.5-.3-5-.7-10.8-4.5-16.5-6.5-10-17.5-12-28.1-14-7.8-1.4-15.1-2.8-20.4-7.1-1.5-1.3-3.7-3.5-6.1-5.9-4-4.1-8.3-8.5-12.6-11.7-.8 3.6-1.4 7.3-1.8 11.1 2.6 2.3 5.1 5 7.5 7.4 2.6 2.7 4.9 5 6.9 6.6 7.2 5.9 16.1 7.6 24.8 9.2 9.4 1.7 17.5 3.2 21.7 9.8 2.4 3.6 2.6 7.5 2.9 11.9.3 4.7.7 10.1 3.8 15.6 4 7.2 7.9 10.7 11.7 14 2.6 2.3 5 4.5 7.7 8 .2.3 19.9 26.5 6.8 46.7-1.1 1.7-2.2 2.6-3.3 2.8-1.8.2-4.2-1.5-5-2.3-4.1-4.2-8.5-23.1-10.3-35.1v-.2c-3.9-19.9-22.6-28-37.7-34.5l-2.5-1.1c-14.6-6.4-28.8-14-35-26.4.7 6.6 2 13.2 3.6 19.5 7.8 6.6 17.6 11.5 27.5 15.8l2.5 1.1c14.3 6.2 29.1 12.6 32 27.4.8 5.6 5.3 32.5 13 40.4.6.6 5.3 5.2 11.6 5.2.4 0 .9 0 1.3-.1 2.9-.3 7-1.8 10.5-7.1 7-11.2 8-24.7 2.7-39.5zm-95.6-26.8c1.6 4 3.5 8 5.5 11.8 16 5.8 32.6 18.3 33 41.2 3.2 2.7 6.5 5.2 9.9 7.6-.1-2.5-.2-4.9-.2-7.4-.3-29.6-23-47.3-48.2-53.2z"/><path d="m124.6 393.5c-6.1-15.3-8.6-20.7-21.6-22.2 15.3-1.8 22.5-9.8 22.5-20.4 0-9.3-6.6-18.4-30.2-18.4h-24.2v1.6c3.8 1.3 4.6 4.7 4.6 13v51.3c0 8.3-.8 11.7-4.6 13v1.6h21.4v-1.6c-3.8-1.3-4.6-4.7-4.6-13v-25.3h6.8c10.1 0 10.7 4.3 17.6 21.1 5.5 13.5 7.8 19.7 17.4 19.7 2 0 5.6-.1 8.3-.8v-1.6c-.6.1-1.2.1-1.7.1-4.3-.1-5.6-2.8-11.7-18.1zm-36.7-24v-32.9c1.7-.2 3.5-.3 5.1-.3 14.4 0 20.4 8.2 20.4 17.5 0 8.9-4.9 15.8-18.1 15.8h-7.4z"/><path d="m472.6 398.4v-22.2c0-14-6.6-21.5-20.5-21.5-10.5 0-19.3 5.3-25.8 13.2l1.2 1c5.9-7 12.2-9.8 18.6-9.8 8.5 0 14.7 3.2 15 14.6l-12.8 3.7c-14.3 4-26.3 9.8-26.3 21.6 0 9.7 7.1 15.1 15.6 15.1 12 0 20.2-10 23.5-23.4v17.6c0 3 1.6 4.6 4.6 4.6h11.5v-1.6c-3.8-1.2-4.6-4.6-4.6-12.9zm-11.5-18.9c-.1 10.4-6.4 26.2-17.7 26.2-5.3 0-10.7-3.1-10.7-10.7 0-9.5 10.7-12.6 16.1-14.1l12.3-3.6z"/><path d="m171.1 404.8c-14.6 0-23.8-9.8-23.8-26.6h43.8c0-12.9-8.3-23.5-23.8-23.5-15 0-30.2 12.2-30.2 31.7 0 18.6 14.5 27.7 27.3 27.7 13.3 0 22.4-9.2 27.7-17.3l-1-1.2c-5 5.6-11.5 9.2-20 9.2zm-7.4-45.7c7.6 0 13.8 4.7 15.6 15.5h-31.5c1.6-10.4 9.6-15.5 15.9-15.5z"/><path d="m393.8 404.8c-14.6 0-23.8-9.8-23.8-26.6h43.8c0-12.9-8.3-23.5-23.8-23.5-15 0-30.2 12.2-30.2 31.7 0 18.6 14.5 27.7 27.3 27.7 13.3 0 22.4-9.2 27.7-17.3l-1-1.2c-4.9 5.6-11.5 9.2-20 9.2zm-7.4-45.7c7.6 0 13.8 4.7 15.6 15.5h-31.5c1.6-10.4 9.6-15.5 15.9-15.5z"/><path d="m255.9 398.4v-77.5l-1.2-.9-15.2 6.7v1.6c2.9 1.3 4.6 2.4 4.6 9.2v20.2c-3.5-1.7-7.5-2.9-12.3-2.9-20 0-32.1 14-32.1 31.6 0 14.3 9.9 27.7 24.5 27.9 8.6.2 15.5-5.8 19.9-10.8v4.8c0 3 1.6 4.6 4.6 4.6h11.7v-1.6c-3.7-1.2-4.5-4.6-4.5-12.9zm-11.7 2.8c-3.3 3.6-7.7 6.3-12.8 6.3-16.6 0-20.4-19.4-20.4-30.4 0-6.7 3.8-17.9 16-17.9 8.4 0 17.1 9 17.1 16.5v25.5z"/><path d="m325.1 366.2c-9.2-3.7-20.8-7.8-20.8-18.1 0-8.6 9.3-12.5 16.4-12.5 10.7 0 21.4 5.6 25.6 16.3l1.3-.5-.5-15c-6-3-13.6-4.8-22.1-4.8-18.1 0-29.6 8.9-29.6 23.1 0 13.3 9.9 17.3 21.7 22.2 9.2 3.7 24 9 24 20.2 0 8.6-8.9 12.5-15.3 12.5-13 0-25.2-7.3-30.4-21.2l-1.5.2.5 17.3c5.9 4.4 16.6 8.2 28.4 8.2 13.2 0 27.7-8.7 27.7-24.5.3-13.7-13.7-18.9-25.4-23.4z"/><path d="m374.4 516.2v-14.3c-2.6 10.8-9.3 19-19 19-6.9 0-12.7-4.4-12.7-12.2 0-9.6 9.8-14.3 21.4-17.6l10.4-3c-.2-9.2-5.2-11.9-12.1-11.9-5.2 0-10.4 2.2-15.1 7.9l-.9-.8c5.2-6.4 12.4-10.7 20.9-10.7 11.3 0 16.6 6.1 16.6 17.5v18c0 6.7.7 9.5 3.7 10.5v1.3h-9.3c-2.6 0-3.9-1.3-3.9-3.7m-14.4-2.2c9.1 0 14.3-12.9 14.4-21.3v-1.7l-10 2.9c-4.4 1.2-13.1 3.7-13.1 11.4 0 6.2 4.4 8.7 8.7 8.7"/><path d="m207 518.7c3.1-1 3.7-3.8 3.7-10.6v-49.6c0-5.5-1.4-6.5-3.7-7.5v-1.3l12.3-5.4.9.7v63c0 6.7.7 9.5 3.7 10.6v1.3h-17v-1.2z"/><path d="m394.3 518.7c3.1-1 3.7-3.8 3.7-10.6v-49.6c0-5.5-1.4-6.5-3.7-7.5v-1.3l12.3-5.4.9.7v63c0 6.7.7 9.5 3.7 10.6v1.3h-17v-1.2z"/><path d="m184.1 490.7v1.3c4 1.1 4.9 3.7 4.9 11v8.5c-2.1 4.1-7.7 6.1-13.6 6.1-6 0-13-2.5-17.7-7.1-7.1-7.5-10.9-19.1-10.8-29.8.2-15.1 9-24.2 21.9-24.2 9.5 0 19.5 5.7 23 14.4l1.1-.3-.4-12.3c-4.9-3.3-14.5-4.6-20.3-4.6-21 0-35.2 15.2-35.2 33.1 0 20.5 13.7 34 35.3 34 7.8 0 19.3-3.8 26.3-13v-17.2h-14.5z"/><path d="m255.3 472.6c-12.8 0-25 10.1-25 25.3 0 15.9 12.8 23.1 25 23.1 11 0 24.9-9.1 24.9-25.1-.1-16.5-13.3-23.3-24.9-23.3m3.2 45.3c-6.5 0-11.7-4.7-14.1-9-2.9-5.1-4.8-12.3-4.8-18.1 0-6.2 2.7-13.5 9.3-15.1 6.7-1.7 13.5 3.5 16.7 9.1 3.1 5.4 5 12.4 5 18.2.1 4.4-2 14.9-12.1 14.9"/><path d="m314.2 472.6c-5.3 0-10.9 2.5-15.5 5.5v-33l-.9-.7-12.3 5.4v1.3c2.3 1 3.7 2 3.7 7.5v61.4h1l3.8-6.1c3.5 3.9 9.4 6.9 16.2 6.9 15.5 0 25.3-11.4 25.3-25.7 0-11.6-8-22.5-21.3-22.5m-.4 46.3c-7.1 0-15.2-8-15.2-15.3v-23.1c3.3-2.1 6.9-3.1 9.8-3.1 13.8 0 17.9 18.5 17.9 24.9.1 8.4-2.6 16.6-12.5 16.6"/></g></svg>